o Button2
v -1.5 0 0.8
v -1.3 0 1
v 1.3 0 1
v 1.5 0 0.8
v 1.5 0 -0.8
v 1.3 0 -1
v -1.3 0 -1
v -1.5 0 -0.8
v -1.32705980500731 -0.0292893218813452 -1.06532814824382
v -1.56532814824382 -0.0292893218813453 -0.82705980500731
v -1.33826834323651 -0.1 -1.09238795325113
v -1.59238795325113 -0.1 -0.838268343236509
v -1.33826834323651 -0.5 -1.09238795325113
v -1.59238795325113 -0.5 -0.838268343236509
v 1.32705980500731 -0.0292893218813452 -1.06532814824382
v 1.33826834323651 -0.1 -1.09238795325113
v 1.33826834323651 -0.5 -1.09238795325113
v 1.56532814824382 -0.0292893218813453 -0.82705980500731
v 1.59238795325113 -0.1 -0.838268343236509
v 1.59238795325113 -0.5 -0.838268343236509
v 1.56532814824382 -0.0292893218813453 0.82705980500731
v 1.59238795325113 -0.1 0.838268343236509
v 1.59238795325113 -0.5 0.838268343236509
v 1.32705980500731 -0.0292893218813452 1.06532814824382
v 1.33826834323651 -0.1 1.09238795325113
v 1.33826834323651 -0.5 1.09238795325113
v -1.32705980500731 -0.0292893218813452 1.06532814824382
v -1.33826834323651 -0.1 1.09238795325113
v -1.33826834323651 -0.5 1.09238795325113
v -1.56532814824382 -0.0292893218813453 0.82705980500731
v -1.59238795325113 -0.1 0.838268343236509
v -1.59238795325113 -0.5 0.838268343236509
vt 0.10090797062475 0.104753866957304
vt 0.159851616081071 0.0211792621165573
vt 0.926119007013246 0.0211792621165573
vt 0.985062652469567 0.104753866957304
vt 0.985062652469567 0.773350705683278
vt 0.926119007013246 0.856925310524025
vt 0.159851616081071 0.856925310524025
vt 0.10090797062475 0.773350705683278
vt 0.147560549807155 0.890343790152016
vt 0.0773385260711663 0.790777876991763
vt 0.133837326437323 0.916425395159253
vt 0.0589436454563211 0.810235665212971
vt 0.0748936809810016 1
vt 0 0.893810270053718
vt 0.929777976264011 0.890343790152016
vt 0.922661473928834 0.916425395159253
vt 0.863717828472512 1
vt 1 0.790777876991763
vt 0.997555154909835 0.810235665212971
vt 0.938611509453514 0.893810270053718
vt 1 0.0995659131602532
vt 0.997555154909835 0.109656209847984
vt 0.938611509453514 0.193230814688731
vt 0.929777976264011 0
vt 0.922661473928834 0.00346647990170167
vt 0.863717828472512 0.0870410847424484
vt 0.147560549807155 0
vt 0.133837326437323 0.00346647990170167
vt 0.0748936809810016 0.0870410847424484
vt 0.0773385260711663 0.0995659131602532
vt 0.0589436454563211 0.109656209847984
vt 0 0.193230814688731
vn 0 1 0
vn -0.289281483686467 0.912486956834076 -0.289281483686467
vn -0.289281483686467 0.912486956834076 -0.289281483686467
vn -0.289281483686467 0.912486956834076 -0.289281483686467
vn -0.289281483686468 0.912486956834076 -0.289281483686467
vn -0.660401551748147 0.357406744336589 -0.660401551748147
vn -0.660401551748146 0.357406744336591 -0.660401551748146
vn -0.660401551748147 0.357406744336591 -0.660401551748146
vn -0.660401551748147 0.357406744336589 -0.660401551748146
vn -0.707106781186548 0 -0.707106781186547
vn 0 0.912486956834076 -0.409105797572813
vn 0 0.357406744336593 -0.933948831094465
vn 0 0.357406744336593 -0.933948831094465
vn 0 0 -1
vn 0.289281483686467 0.912486956834076 -0.289281483686467
vn 0.289281483686467 0.912486956834076 -0.289281483686467
vn 0.289281483686468 0.912486956834076 -0.289281483686467
vn 0.289281483686467 0.912486956834076 -0.289281483686467
vn 0.660401551748146 0.357406744336591 -0.660401551748146
vn 0.660401551748147 0.357406744336589 -0.660401551748147
vn 0.660401551748147 0.357406744336589 -0.660401551748146
vn 0.660401551748147 0.357406744336591 -0.660401551748146
vn 0.707106781186548 0 -0.707106781186547
vn 0.409105797572814 0.912486956834076 0
vn 0.933948831094467 0.357406744336588 0
vn 0.933948831094467 0.357406744336588 0
vn 1 0 0
vn 0.289281483686467 0.912486956834076 0.289281483686467
vn 0.289281483686467 0.912486956834076 0.289281483686467
vn 0.289281483686467 0.912486956834076 0.289281483686467
vn 0.289281483686468 0.912486956834076 0.289281483686467
vn 0.660401551748147 0.357406744336589 0.660401551748147
vn 0.660401551748146 0.357406744336591 0.660401551748146
vn 0.660401551748147 0.357406744336591 0.660401551748146
vn 0.660401551748147 0.357406744336589 0.660401551748146
vn 0.707106781186548 0 0.707106781186547
vn 0 0.912486956834076 0.409105797572813
vn 0 0.357406744336593 0.933948831094465
vn 0 0.357406744336593 0.933948831094465
vn 0 0 1
vn -0.289281483686467 0.912486956834076 0.289281483686467
vn -0.289281483686467 0.912486956834076 0.289281483686467
vn -0.289281483686468 0.912486956834076 0.289281483686467
vn -0.289281483686467 0.912486956834076 0.289281483686467
vn -0.660401551748146 0.357406744336591 0.660401551748146
vn -0.660401551748147 0.357406744336589 0.660401551748147
vn -0.660401551748147 0.357406744336589 0.660401551748146
vn -0.660401551748147 0.357406744336591 0.660401551748146
vn -0.707106781186548 0 0.707106781186547
vn -0.409105797572814 0.912486956834076 0
vn -0.933948831094467 0.357406744336588 0
vn -0.933948831094467 0.357406744336588 0
vn -1 0 0
g Button2
f 1/1/1 2/2/1 3/3/1 4/4/1 5/5/1 6/6/1 7/7/1 8/8/1
f 8/8/2 7/7/3 9/9/4 10/10/5
f 10/10/6 9/9/7 11/11/8 12/12/9
f 12/12/10 11/11/10 13/13/10 14/14/10
f 7/7/11 6/6/11 15/15/11 9/9/11
f 9/9/12 15/15/12 16/16/13 11/11/13
f 11/11/14 16/16/14 17/17/14 13/13/14
f 6/6/15 5/5/16 18/18/17 15/15/18
f 15/15/19 18/18/20 19/19/21 16/16/22
f 16/16/23 19/19/23 20/20/23 17/17/23
f 5/5/24 4/4/24 21/21/24 18/18/24
f 18/18/25 21/21/25 22/22/26 19/19/26
f 19/19/27 22/22/27 23/23/27 20/20/27
f 4/4/28 3/3/29 24/24/30 21/21/31
f 21/21/32 24/24/33 25/25/34 22/22/35
f 22/22/36 25/25/36 26/26/36 23/23/36
f 3/3/37 2/2/37 27/27/37 24/24/37
f 24/24/38 27/27/38 28/28/39 25/25/39
f 25/25/40 28/28/40 29/29/40 26/26/40
f 2/2/41 1/1/42 30/30/43 27/27/44
f 27/27/45 30/30/46 31/31/47 28/28/48
f 28/28/49 31/31/49 32/32/49 29/29/49
f 1/1/50 8/8/50 10/10/50 30/30/50
f 30/30/51 10/10/51 12/12/52 31/31/52
f 31/31/53 12/12/53 14/14/53 32/32/53
#h 
